<?xml version="1.0" encoding="UTF-8" standalone="no" ?>
<!DOCTYPE svg PUBLIC "-//W3C//DTD SVG 1.1//EN" "http://www.w3.org/Graphics/SVG/1.1/DTD/svg11.dtd">
<svg xmlns="http://www.w3.org/2000/svg" xmlns:xlink="http://www.w3.org/1999/xlink" version="1.1" width="1080" height="1080" viewBox="0 0 1080 1080" xml:space="preserve">
<desc>Created with Fabric.js 5.2.4</desc>
<defs>
</defs>
<g transform="matrix(1 0 0 1 540 540)" id="3a60ea5b-764b-4455-aa38-057bbeb3ca19"  >
<rect style="stroke: none; stroke-width: 1; stroke-dasharray: none; stroke-linecap: butt; stroke-dashoffset: 0; stroke-linejoin: miter; stroke-miterlimit: 4; fill: rgb(255,255,255); fill-rule: nonzero; opacity: 1; visibility: hidden;" vector-effect="non-scaling-stroke"  x="-540" y="-540" rx="0" ry="0" width="1080" height="1080" />
</g>
<g transform="matrix(1 0 0 1 540 540)" id="715c4e35-d0af-42f6-af8e-1166790609cf"  >
</g>
<g transform="matrix(1.6 0 0 1.6 540 540)"  >
<g style="" vector-effect="non-scaling-stroke"   >
		<g transform="matrix(0.13 0 0 -0.13 -69.45 0)"  >
<path style="stroke: none; stroke-width: 1; stroke-dasharray: none; stroke-linecap: butt; stroke-dashoffset: 0; stroke-linejoin: miter; stroke-miterlimit: 4; fill: rgb(66,162,16); fill-rule: nonzero; opacity: 1;" vector-effect="non-scaling-stroke"  transform=" translate(-1983.8, -2439.32)" d="M 1695 4733 C 1510 4700 1300 4612 1130 4496 C 949 4373 745 4131 651 3929 C 557 3725 520 3552 520 3314 C 520 2999 562 2858 775 2465 C 811 2399 993 2045 1181 1679 L 1522 1012 L 1594 1036 C 1633 1049 1670 1058 1677 1056 C 1696 1048 1693 1020 1673 1013 C 1663 1010 1616 992 1569 974 C 1457 931 1095 838 905 804 C 783 782 724 776 590 776 C 431 775 423 776 368 802 C 245 859 231 959 320 1145 C 392 1294 443 1359 608 1505 C 745 1628 783 1665 748 1644 C 690 1609 441 1404 338 1307 C 144 1125 22 933 13 792 C 9 734 11 721 32 691 C 65 642 100 620 166 604 C 371 556 787 633 1385 830 C 1485 863 1571 890 1576 890 C 1581 890 1671 719 1775 510 L 1965 130 L 2229 657 L 2493 1185 L 2534 1060 C 2563 973 2580 934 2592 932 C 2626 926 2623 981 2581 1111 C 2559 1179 2539 1244 2537 1255 C 2536 1266 2532 1280 2529 1285 C 2513 1312 2488 1404 2496 1407 C 2501 1409 2540 1431 2582 1458 C 2625 1484 2886 1644 3162 1814 C 3706 2149 3724 2159 3699 2139 C 3691 2131 3471 1946 3212 1726 C 2878 1444 2740 1321 2740 1307 C 2740 1296 2716 1233 2686 1166 C 2650 1084 2631 1027 2627 987 C 2622 932 2632 910 2645 949 C 2649 964 2908 1161 2977 1203 C 2983 1207 3057 1186 3141 1156 C 3291 1103 3320 1098 3320 1127 C 3320 1135 3462 1401 3635 1718 C 3807 2035 3952 2303 3956 2313 C 3967 2343 3645 2227 2570 1815 C 2259 1696 2002 1595 1998 1591 C 1994 1588 2092 1547 2215 1501 C 2339 1454 2438 1415 2436 1412 C 2433 1410 2326 1448 2197 1496 C 2005 1568 1965 1586 1978 1595 C 1987 1601 2182 1678 2410 1765 C 2638 1852 2837 1929 2853 1937 C 2875 1948 2908 2006 3021 2233 C 3099 2388 3170 2526 3180 2540 C 3217 2592 3302 2773 3331 2862 C 3381 3016 3399 3149 3396 3345 C 3394 3523 3382 3597 3333 3755 C 3277 3937 3136 4174 3002 4313 C 2796 4527 2498 4685 2206 4735 C 2093 4754 1807 4753 1695 4733 z M 2260 4291 C 2560 4204 2815 3974 2931 3683 C 2984 3552 3003 3437 2997 3280 C 2992 3114 2967 3011 2900 2874 L 2852 2775 L 2851 2946 C 2850 3075 2846 3128 2834 3164 C 2812 3228 2733 3312 2662 3347 C 2611 3372 2595 3375 2500 3375 C 2411 3375 2387 3371 2343 3352 C 2315 3339 2284 3320 2275 3310 C 2260 3294 2262 3289 2298 3236 C 2364 3142 2410 2959 2410 2787 L 2410 2729 L 2615 2732 C 2728 2734 2820 2733 2820 2730 C 2820 2715 2675 2563 2615 2515 C 2529 2446 2353 2358 2245 2329 C 2144 2303 1943 2293 1832 2309 C 1624 2340 1438 2433 1277 2589 C 954 2900 879 3391 1092 3791 C 1228 4046 1485 4241 1770 4305 C 1871 4328 2161 4319 2260 4291 z M 3819 2158 C 3763 2052 3286 1184 3281 1178 C 3276 1173 2845 1322 2833 1333 C 2830 1337 3820 2180 3828 2180 C 3829 2180 3825 2170 3819 2158 z M 3565 2122 C 3549 2112 3335 1980 3090 1830 C 2456 1441 2460 1443 2460 1471 C 2460 1476 2456 1479 2451 1476 C 2447 1473 2367 1496 2274 1527 C 2181 1558 2112 1585 2120 1588 C 2128 1590 2241 1633 2370 1682 C 2499 1732 2657 1792 2720 1815 C 2783 1839 3002 1921 3205 1998 C 3409 2075 3580 2138 3585 2139 C 3591 2139 3582 2132 3565 2122 z M 2868 1254 C 2897 1244 2919 1233 2918 1229 C 2914 1219 2708 1069 2703 1073 C 2701 1075 2716 1112 2736 1156 C 2756 1199 2776 1245 2781 1258 C 2786 1271 2796 1279 2803 1277 C 2809 1274 2839 1263 2868 1254 z M 2285 1246 C 2285 1232 2264 1220 2190 1194 C 2092 1159 2066 1157 2072 1187 C 2074 1199 2104 1216 2160 1237 C 2254 1273 2285 1275 2285 1246 z M 2018 1155 C 2020 1137 2005 1129 1898 1092 C 1756 1043 1737 1041 1742 1071 C 1744 1089 1767 1100 1865 1135 C 1931 1159 1992 1177 2000 1176 C 2008 1176 2016 1166 2018 1155 z M 223 1070 C 214 1045 207 994 206 955 C 205 854 233 806 320 763 C 405 720 503 706 645 714 C 706 718 771 723 790 727 C 809 730 823 730 820 727 C 817 724 747 707 665 690 C 547 665 482 657 360 653 C 214 648 201 649 152 670 C 62 709 47 782 103 904 C 129 959 231 1123 236 1117 C 238 1115 232 1094 223 1070 z" stroke-linecap="round" />
</g>
		<g transform="matrix(0.13 0 0 -0.13 -134.98 -164.05)"  >
<path style="stroke: none; stroke-width: 1; stroke-dasharray: none; stroke-linecap: butt; stroke-dashoffset: 0; stroke-linejoin: miter; stroke-miterlimit: 4; fill: rgb(66,162,16); fill-rule: nonzero; opacity: 1;" vector-effect="non-scaling-stroke"  transform=" translate(-1492.31, -3669.68)" d="M 1410 3909 C 1321 3869 1263 3790 1253 3696 C 1242 3591 1298 3485 1389 3438 C 1492 3384 1653 3410 1710 3490 C 1729 3517 1729 3520 1714 3556 C 1690 3612 1691 3726 1714 3779 L 1733 3820 L 1704 3852 C 1634 3926 1504 3952 1410 3909 z" stroke-linecap="round" />
</g>
		<g transform="matrix(0.13 0 0 -0.13 -68.84 -164.02)"  >
<path style="stroke: none; stroke-width: 1; stroke-dasharray: none; stroke-linecap: butt; stroke-dashoffset: 0; stroke-linejoin: miter; stroke-miterlimit: 4; fill: rgb(66,162,16); fill-rule: nonzero; opacity: 1;" vector-effect="non-scaling-stroke"  transform=" translate(-1988.41, -3669.47)" d="M 1875 3906 C 1820 3881 1765 3825 1743 3771 C 1722 3721 1724 3611 1747 3558 C 1771 3504 1822 3453 1875 3429 C 1938 3400 2043 3403 2109 3436 C 2266 3515 2297 3734 2168 3857 C 2091 3931 1971 3951 1875 3906 z" stroke-linecap="round" />
</g>
		<g transform="matrix(0.13 0 0 -0.13 -2.34 -164.06)"  >
<path style="stroke: none; stroke-width: 1; stroke-dasharray: none; stroke-linecap: butt; stroke-dashoffset: 0; stroke-linejoin: miter; stroke-miterlimit: 4; fill: rgb(66,162,16); fill-rule: nonzero; opacity: 1;" vector-effect="non-scaling-stroke"  transform=" translate(-2487.14, -3669.78)" d="M 2355 3906 C 2328 3893 2292 3868 2276 3851 L 2246 3820 L 2263 3767 C 2284 3699 2285 3636 2264 3572 C 2248 3523 2248 3521 2269 3492 C 2327 3410 2487 3383 2591 3438 C 2712 3501 2764 3665 2702 3786 C 2637 3911 2481 3966 2355 3906 z" stroke-linecap="round" />
</g>
		<g transform="matrix(0.13 0 0 -0.13 -142.23 -81.95)"  >
<path style="stroke: none; stroke-width: 1; stroke-dasharray: none; stroke-linecap: butt; stroke-dashoffset: 0; stroke-linejoin: miter; stroke-miterlimit: 4; fill: rgb(66,162,16); fill-rule: nonzero; opacity: 1;" vector-effect="non-scaling-stroke"  transform=" translate(-1437.97, -3053.95)" d="M 1385 3367 C 1319 3345 1287 3324 1238 3272 C 1157 3186 1155 3180 1152 2963 C 1147 2711 1129 2730 1373 2730 L 1557 2730 L 1563 2833 C 1574 3022 1618 3161 1697 3258 C 1732 3301 1733 3303 1714 3317 C 1704 3326 1675 3342 1650 3353 C 1594 3379 1445 3387 1385 3367 z" stroke-linecap="round" />
</g>
		<g transform="matrix(0.13 0 0 -0.13 -69.66 -66.57)"  >
<path style="stroke: none; stroke-width: 1; stroke-dasharray: none; stroke-linecap: butt; stroke-dashoffset: 0; stroke-linejoin: miter; stroke-miterlimit: 4; fill: rgb(66,162,16); fill-rule: nonzero; opacity: 1;" vector-effect="non-scaling-stroke"  transform=" translate(-1982.27, -2938.63)" d="M 1880 3341 C 1789 3312 1709 3242 1665 3153 C 1615 3049 1598 2961 1593 2757 C 1588 2587 1589 2568 1605 2550 C 1622 2531 1637 2530 1980 2530 C 2330 2530 2337 2530 2356 2551 C 2373 2570 2375 2589 2374 2758 C 2374 2969 2360 3055 2310 3156 C 2273 3232 2219 3289 2154 3321 C 2113 3341 2088 3345 2005 3347 C 1950 3348 1894 3346 1880 3341 z" stroke-linecap="round" />
</g>
		<g transform="matrix(0.13 0 0 -0.13 232.58 -74.36)"  >
<path style="stroke: none; stroke-width: 1; stroke-dasharray: none; stroke-linecap: butt; stroke-dashoffset: 0; stroke-linejoin: miter; stroke-miterlimit: 4; fill: rgb(66,162,16); fill-rule: nonzero; opacity: 1;" vector-effect="non-scaling-stroke"  transform=" translate(-4249.03, -2997.01)" d="M 4670 3560 C 4519 3540 4381 3499 3953 3347 C 3645 3238 3500 3181 3500 3172 C 3500 3152 3531 3159 3800 3237 C 4200 3352 4385 3390 4553 3390 C 4729 3390 4779 3344 4735 3221 C 4688 3087 4426 2784 4152 2547 C 4054 2463 4044 2451 4056 2435 C 4068 2419 4081 2427 4216 2536 C 4581 2831 4876 3136 4966 3313 C 5020 3419 5005 3506 4927 3540 C 4876 3563 4759 3572 4670 3560 z M 4910 3482 C 4946 3455 4948 3405 4916 3342 C 4894 3298 4774 3130 4765 3130 C 4763 3130 4773 3158 4787 3192 C 4806 3240 4811 3267 4808 3307 C 4803 3367 4785 3391 4725 3423 C 4690 3442 4668 3444 4543 3445 C 4389 3445 4392 3449 4565 3480 C 4717 3507 4735 3509 4815 3504 C 4863 3502 4892 3495 4910 3482 z" stroke-linecap="round" />
</g>
</g>
</g>
</svg>